<svg width="181" height="50" viewBox="0 0 181 50" fill="none" xmlns="http://www.w3.org/2000/svg">
<path d="M15.024 49.384C12.9333 49.384 10.992 49.1067 9.2 48.552C7.45067 47.9973 5.936 47.08 4.656 45.8C3.376 44.4773 2.37333 42.7067 1.648 40.488C0.965333 38.2267 0.624 35.3893 0.624 31.976C0.624 28.4773 0.944 25.576 1.584 23.272C2.224 20.968 3.16267 19.1547 4.4 17.832C5.68 16.4667 7.23733 15.5067 9.072 14.952C10.9067 14.3973 12.976 14.12 15.28 14.12C17.3707 14.12 19.3547 14.248 21.232 14.504C23.152 14.7173 25.1573 15.1227 27.248 15.72V21.16H18.224C16.2613 21.16 14.6827 21.4587 13.488 22.056C12.2933 22.6107 11.4187 23.6773 10.864 25.256C10.352 26.792 10.096 29.0107 10.096 31.912C10.096 34.7707 10.352 36.9467 10.864 38.44C11.4187 39.9333 12.2933 40.936 13.488 41.448C14.7253 41.96 16.3467 42.216 18.352 42.216H27.76V47.592C26.6933 47.9333 25.456 48.2533 24.048 48.552C22.64 48.808 21.1467 49 19.568 49.128C18.032 49.2987 16.5173 49.384 15.024 49.384Z" fill="#7159C1"/>
<path d="M47.743 49.32C44.927 49.32 42.5163 49.0427 40.511 48.488C38.5057 47.8907 36.863 46.9093 35.583 45.544C34.3457 44.1787 33.4283 42.3653 32.831 40.104C32.2763 37.8427 31.999 35.048 31.999 31.72C31.999 28.2213 32.2763 25.3413 32.831 23.08C33.4283 20.776 34.3457 18.984 35.583 17.704C36.863 16.3813 38.5057 15.464 40.511 14.952C42.559 14.3973 44.9697 14.12 47.743 14.12C50.6017 14.12 53.0337 14.3973 55.039 14.952C57.0443 15.5067 58.6657 16.4453 59.903 17.768C61.183 19.048 62.1003 20.84 62.655 23.144C63.2523 25.4053 63.551 28.264 63.551 31.72C63.551 35.1333 63.2737 37.992 62.719 40.296C62.1643 42.5573 61.2683 44.3493 60.031 45.672C58.7937 46.9947 57.151 47.9333 55.103 48.488C53.0977 49.0427 50.6443 49.32 47.743 49.32ZM47.743 41.768C48.895 41.768 49.855 41.6613 50.623 41.448C51.4337 41.2347 52.0737 40.808 52.543 40.168C53.055 39.4853 53.439 38.4613 53.695 37.096C53.951 35.7307 54.079 33.9387 54.079 31.72C54.079 29.4587 53.951 27.6667 53.695 26.344C53.439 24.9787 53.055 23.976 52.543 23.336C52.0737 22.6533 51.4337 22.2053 50.623 21.992C49.855 21.7787 48.895 21.672 47.743 21.672C46.6337 21.672 45.6737 21.7787 44.863 21.992C44.095 22.2053 43.455 22.6533 42.943 23.336C42.431 23.976 42.047 24.9787 41.791 26.344C41.5777 27.6667 41.471 29.4587 41.471 31.72C41.471 33.9387 41.5777 35.7307 41.791 37.096C42.047 38.4613 42.431 39.4853 42.943 40.168C43.455 40.808 44.095 41.2347 44.863 41.448C45.6737 41.6613 46.6337 41.768 47.743 41.768Z" fill="#EB642A"/>
<path d="M80.5875 49.128C78.1555 49.128 76.1288 48.744 74.5075 47.976C72.9288 47.1653 71.7555 45.9493 70.9875 44.328C70.2195 42.664 69.8355 40.5307 69.8355 37.928V0.167999H79.3075V36.52C79.3075 37.8 79.4355 38.824 79.6915 39.592C79.9475 40.3173 80.3315 40.8507 80.8435 41.192C81.3982 41.5333 82.0808 41.768 82.8915 41.896L85.5155 42.28V49.128H80.5875Z" fill="#48C733"/>
<path d="M104.618 49.32C101.802 49.32 99.3913 49.0427 97.386 48.488C95.3807 47.8907 93.738 46.9093 92.458 45.544C91.2207 44.1787 90.3033 42.3653 89.706 40.104C89.1513 37.8427 88.874 35.048 88.874 31.72C88.874 28.2213 89.1513 25.3413 89.706 23.08C90.3033 20.776 91.2207 18.984 92.458 17.704C93.738 16.3813 95.3807 15.464 97.386 14.952C99.434 14.3973 101.845 14.12 104.618 14.12C107.477 14.12 109.909 14.3973 111.914 14.952C113.919 15.5067 115.541 16.4453 116.778 17.768C118.058 19.048 118.975 20.84 119.53 23.144C120.127 25.4053 120.426 28.264 120.426 31.72C120.426 35.1333 120.149 37.992 119.594 40.296C119.039 42.5573 118.143 44.3493 116.906 45.672C115.669 46.9947 114.026 47.9333 111.978 48.488C109.973 49.0427 107.519 49.32 104.618 49.32ZM104.618 41.768C105.77 41.768 106.73 41.6613 107.498 41.448C108.309 41.2347 108.949 40.808 109.418 40.168C109.93 39.4853 110.314 38.4613 110.57 37.096C110.826 35.7307 110.954 33.9387 110.954 31.72C110.954 29.4587 110.826 27.6667 110.57 26.344C110.314 24.9787 109.93 23.976 109.418 23.336C108.949 22.6533 108.309 22.2053 107.498 21.992C106.73 21.7787 105.77 21.672 104.618 21.672C103.509 21.672 102.549 21.7787 101.738 21.992C100.97 22.2053 100.33 22.6533 99.818 23.336C99.306 23.976 98.922 24.9787 98.666 26.344C98.4527 27.6667 98.346 29.4587 98.346 31.72C98.346 33.9387 98.4527 35.7307 98.666 37.096C98.922 38.4613 99.306 39.4853 99.818 40.168C100.33 40.808 100.97 41.2347 101.738 41.448C102.549 41.6613 103.509 41.768 104.618 41.768Z" fill="#3BB9C1"/>
<path d="M126.711 49V14.632H134.007L136.183 19.88C137.42 18.3013 138.807 16.9573 140.343 15.848C141.921 14.7387 143.777 14.184 145.911 14.184C146.38 14.184 146.849 14.2053 147.319 14.248C147.831 14.2907 148.3 14.376 148.727 14.504V24.232C148.087 24.1467 147.404 24.0827 146.679 24.04C145.996 23.9547 145.335 23.912 144.695 23.912C143.457 23.912 142.327 24.0613 141.303 24.36C140.321 24.616 139.404 25.0213 138.551 25.576C137.74 26.088 136.951 26.7707 136.183 27.624V49H126.711Z" fill="#F09A35"/>
<path d="M166.253 49.384C165.186 49.384 164.034 49.3413 162.797 49.256C161.56 49.2133 160.322 49.128 159.085 49C157.848 48.872 156.696 48.7227 155.629 48.552C154.562 48.3387 153.666 48.104 152.941 47.848V42.28H168.173C169.069 42.28 169.794 42.216 170.349 42.088C170.946 41.9173 171.373 41.64 171.629 41.256C171.928 40.8293 172.077 40.232 172.077 39.464V38.376C172.077 37.5227 171.8 36.8613 171.245 36.392C170.69 35.9227 169.666 35.688 168.173 35.688H162.797C160.834 35.688 159.064 35.3893 157.485 34.792C155.906 34.1947 154.648 33.2133 153.709 31.848C152.813 30.4827 152.365 28.648 152.365 26.344V24.36C152.365 22.184 152.792 20.3493 153.645 18.856C154.498 17.3627 155.928 16.232 157.933 15.464C159.938 14.696 162.69 14.312 166.189 14.312C167.597 14.312 169.09 14.3973 170.669 14.568C172.29 14.696 173.805 14.888 175.213 15.144C176.664 15.3573 177.816 15.6133 178.669 15.912V21.48H164.269C163.032 21.48 162.093 21.6933 161.453 22.12C160.813 22.504 160.493 23.2507 160.493 24.36V25.384C160.493 26.152 160.642 26.728 160.941 27.112C161.24 27.4533 161.688 27.7093 162.285 27.88C162.925 28.008 163.714 28.072 164.653 28.072H170.157C173.656 28.072 176.194 28.8827 177.773 30.504C179.394 32.0827 180.205 34.28 180.205 37.096V40.168C180.205 42.472 179.65 44.3067 178.541 45.672C177.474 46.9947 175.896 47.9547 173.805 48.552C171.757 49.1067 169.24 49.384 166.253 49.384Z" fill="#E12020"/>
</svg>
